<mxfile host="app.diagrams.net" agent="Mozilla/5.0 (Macintosh; Intel Mac OS X 10_15_7) AppleWebKit/537.36 (KHTML, like Gecko) Chrome/137.0.0.0 Safari/537.36" version="27.1.3">
  <diagram name="Pagina-1" id="fPQ7NIWNo9piFpPdwl4-">
    <mxGraphModel dx="946" dy="592" grid="1" gridSize="10" guides="1" tooltips="1" connect="1" arrows="1" fold="1" page="1" pageScale="1" pageWidth="827" pageHeight="1169" math="0" shadow="0">
      <root>
        <mxCell id="0" />
        <mxCell id="1" parent="0" />
        <mxCell id="aBB88XqnUMOAzRAOUT1o-1" style="edgeStyle=orthogonalEdgeStyle;rounded=0;orthogonalLoop=1;jettySize=auto;html=1;exitX=1;exitY=0.5;exitDx=0;exitDy=0;endArrow=none;startFill=0;" edge="1" parent="1" source="aBB88XqnUMOAzRAOUT1o-3" target="aBB88XqnUMOAzRAOUT1o-18">
          <mxGeometry relative="1" as="geometry" />
        </mxCell>
        <mxCell id="aBB88XqnUMOAzRAOUT1o-2" style="edgeStyle=orthogonalEdgeStyle;rounded=0;orthogonalLoop=1;jettySize=auto;html=1;endArrow=none;startFill=0;" edge="1" parent="1" source="aBB88XqnUMOAzRAOUT1o-3" target="aBB88XqnUMOAzRAOUT1o-48">
          <mxGeometry relative="1" as="geometry" />
        </mxCell>
        <mxCell id="aBB88XqnUMOAzRAOUT1o-3" value="" style="ellipse;whiteSpace=wrap;html=1;aspect=fixed;fillColor=#FFFFFF;" vertex="1" parent="1">
          <mxGeometry x="610" y="427" width="14" height="14" as="geometry" />
        </mxCell>
        <mxCell id="aBB88XqnUMOAzRAOUT1o-4" style="edgeStyle=orthogonalEdgeStyle;rounded=0;orthogonalLoop=1;jettySize=auto;html=1;exitX=1;exitY=0.5;exitDx=0;exitDy=0;entryX=0;entryY=0.5;entryDx=0;entryDy=0;endArrow=none;startFill=0;" edge="1" parent="1" source="aBB88XqnUMOAzRAOUT1o-5" target="aBB88XqnUMOAzRAOUT1o-48">
          <mxGeometry relative="1" as="geometry" />
        </mxCell>
        <mxCell id="aBB88XqnUMOAzRAOUT1o-5" value="" style="ellipse;whiteSpace=wrap;html=1;aspect=fixed;fillColor=#FFFFFF;" vertex="1" parent="1">
          <mxGeometry x="223" y="428" width="14" height="14" as="geometry" />
        </mxCell>
        <mxCell id="aBB88XqnUMOAzRAOUT1o-6" value="" style="ellipse;whiteSpace=wrap;html=1;aspect=fixed;fillColor=#FFFFFF;" vertex="1" parent="1">
          <mxGeometry x="395" y="522.51" width="14" height="14" as="geometry" />
        </mxCell>
        <mxCell id="aBB88XqnUMOAzRAOUT1o-7" value="&lt;div&gt;&lt;span style=&quot;background-color: transparent; color: light-dark(rgb(0, 0, 0), rgb(255, 255, 255));&quot;&gt;Careplan&lt;/span&gt;&lt;/div&gt;" style="text;html=1;align=center;verticalAlign=middle;resizable=0;points=[];autosize=1;strokeColor=none;fillColor=none;" vertex="1" parent="1">
          <mxGeometry x="414" y="514.51" width="70" height="30" as="geometry" />
        </mxCell>
        <mxCell id="aBB88XqnUMOAzRAOUT1o-8" style="edgeStyle=orthogonalEdgeStyle;rounded=0;orthogonalLoop=1;jettySize=auto;html=1;exitX=0.5;exitY=0;exitDx=0;exitDy=0;entryX=0.5;entryY=1;entryDx=0;entryDy=0;endArrow=none;startFill=0;" edge="1" parent="1" source="aBB88XqnUMOAzRAOUT1o-9" target="aBB88XqnUMOAzRAOUT1o-6">
          <mxGeometry relative="1" as="geometry" />
        </mxCell>
        <mxCell id="aBB88XqnUMOAzRAOUT1o-9" value="" style="ellipse;whiteSpace=wrap;html=1;aspect=fixed;fillColor=#FFFFFF;" vertex="1" parent="1">
          <mxGeometry x="395" y="562.51" width="14" height="14" as="geometry" />
        </mxCell>
        <mxCell id="aBB88XqnUMOAzRAOUT1o-10" value="Description" style="text;html=1;align=center;verticalAlign=middle;resizable=0;points=[];autosize=1;strokeColor=none;fillColor=none;" vertex="1" parent="1">
          <mxGeometry x="409" y="554.51" width="80" height="30" as="geometry" />
        </mxCell>
        <mxCell id="aBB88XqnUMOAzRAOUT1o-11" value="Condition" style="text;html=1;align=center;verticalAlign=middle;resizable=0;points=[];autosize=1;strokeColor=none;fillColor=none;" vertex="1" parent="1">
          <mxGeometry x="200" y="398" width="70" height="30" as="geometry" />
        </mxCell>
        <mxCell id="aBB88XqnUMOAzRAOUT1o-12" style="edgeStyle=orthogonalEdgeStyle;rounded=0;orthogonalLoop=1;jettySize=auto;html=1;entryX=0;entryY=0.5;entryDx=0;entryDy=0;endArrow=none;startFill=0;" edge="1" parent="1" source="aBB88XqnUMOAzRAOUT1o-13" target="aBB88XqnUMOAzRAOUT1o-5">
          <mxGeometry relative="1" as="geometry" />
        </mxCell>
        <mxCell id="aBB88XqnUMOAzRAOUT1o-13" value="" style="ellipse;whiteSpace=wrap;html=1;aspect=fixed;fillColor=#FFFFFF;" vertex="1" parent="1">
          <mxGeometry x="153" y="428" width="14" height="14" as="geometry" />
        </mxCell>
        <mxCell id="aBB88XqnUMOAzRAOUT1o-14" value="Description" style="text;html=1;align=center;verticalAlign=middle;resizable=0;points=[];autosize=1;strokeColor=none;fillColor=none;" vertex="1" parent="1">
          <mxGeometry x="120" y="398" width="80" height="30" as="geometry" />
        </mxCell>
        <mxCell id="aBB88XqnUMOAzRAOUT1o-15" value="Encounter" style="text;html=1;align=center;verticalAlign=middle;resizable=0;points=[];autosize=1;strokeColor=none;fillColor=none;" vertex="1" parent="1">
          <mxGeometry x="540" y="405" width="80" height="30" as="geometry" />
        </mxCell>
        <mxCell id="aBB88XqnUMOAzRAOUT1o-16" style="edgeStyle=orthogonalEdgeStyle;rounded=0;orthogonalLoop=1;jettySize=auto;html=1;exitX=0.5;exitY=1;exitDx=0;exitDy=0;entryX=0.5;entryY=0;entryDx=0;entryDy=0;curved=1;endArrow=none;startFill=0;" edge="1" parent="1" source="aBB88XqnUMOAzRAOUT1o-18" target="aBB88XqnUMOAzRAOUT1o-23">
          <mxGeometry relative="1" as="geometry" />
        </mxCell>
        <mxCell id="aBB88XqnUMOAzRAOUT1o-17" style="edgeStyle=orthogonalEdgeStyle;rounded=0;orthogonalLoop=1;jettySize=auto;html=1;exitX=1;exitY=0.5;exitDx=0;exitDy=0;entryX=0;entryY=0.5;entryDx=0;entryDy=0;endArrow=none;startFill=0;" edge="1" parent="1" source="aBB88XqnUMOAzRAOUT1o-18" target="aBB88XqnUMOAzRAOUT1o-22">
          <mxGeometry relative="1" as="geometry" />
        </mxCell>
        <mxCell id="aBB88XqnUMOAzRAOUT1o-18" value="" style="ellipse;whiteSpace=wrap;html=1;aspect=fixed;fillColor=#FFFFFF;" vertex="1" parent="1">
          <mxGeometry x="687" y="427" width="14" height="14" as="geometry" />
        </mxCell>
        <mxCell id="aBB88XqnUMOAzRAOUT1o-19" value="Id_Organization" style="text;html=1;align=center;verticalAlign=middle;resizable=0;points=[];autosize=1;strokeColor=none;fillColor=none;" vertex="1" parent="1">
          <mxGeometry x="647" y="397" width="110" height="30" as="geometry" />
        </mxCell>
        <mxCell id="aBB88XqnUMOAzRAOUT1o-20" style="edgeStyle=orthogonalEdgeStyle;rounded=0;orthogonalLoop=1;jettySize=auto;html=1;exitX=1;exitY=0;exitDx=0;exitDy=0;entryX=0;entryY=0.5;entryDx=0;entryDy=0;endArrow=none;startFill=0;" edge="1" parent="1" source="aBB88XqnUMOAzRAOUT1o-22" target="aBB88XqnUMOAzRAOUT1o-52">
          <mxGeometry relative="1" as="geometry" />
        </mxCell>
        <mxCell id="aBB88XqnUMOAzRAOUT1o-21" style="edgeStyle=orthogonalEdgeStyle;rounded=0;orthogonalLoop=1;jettySize=auto;html=1;exitX=1;exitY=1;exitDx=0;exitDy=0;entryX=0;entryY=0.5;entryDx=0;entryDy=0;endArrow=none;startFill=0;" edge="1" parent="1" source="aBB88XqnUMOAzRAOUT1o-22" target="aBB88XqnUMOAzRAOUT1o-54">
          <mxGeometry relative="1" as="geometry" />
        </mxCell>
        <mxCell id="aBB88XqnUMOAzRAOUT1o-22" value="" style="ellipse;whiteSpace=wrap;html=1;aspect=fixed;fillColor=#FFFFFF;" vertex="1" parent="1">
          <mxGeometry x="788" y="427" width="14" height="14" as="geometry" />
        </mxCell>
        <mxCell id="aBB88XqnUMOAzRAOUT1o-23" value="" style="ellipse;whiteSpace=wrap;html=1;aspect=fixed;fillColor=#FFFFFF;" vertex="1" parent="1">
          <mxGeometry x="687" y="465" width="14" height="14" as="geometry" />
        </mxCell>
        <mxCell id="aBB88XqnUMOAzRAOUT1o-24" value="Name" style="text;html=1;align=center;verticalAlign=middle;resizable=0;points=[];autosize=1;strokeColor=none;fillColor=none;" vertex="1" parent="1">
          <mxGeometry x="664" y="473" width="60" height="30" as="geometry" />
        </mxCell>
        <mxCell id="aBB88XqnUMOAzRAOUT1o-25" style="edgeStyle=orthogonalEdgeStyle;rounded=0;orthogonalLoop=1;jettySize=auto;html=1;entryX=0.5;entryY=1;entryDx=0;entryDy=0;endArrow=none;startFill=0;" edge="1" parent="1" source="aBB88XqnUMOAzRAOUT1o-26" target="aBB88XqnUMOAzRAOUT1o-22">
          <mxGeometry relative="1" as="geometry" />
        </mxCell>
        <mxCell id="aBB88XqnUMOAzRAOUT1o-26" value="" style="ellipse;whiteSpace=wrap;html=1;aspect=fixed;fillColor=#FFFFFF;" vertex="1" parent="1">
          <mxGeometry x="788" y="465" width="14" height="14" as="geometry" />
        </mxCell>
        <mxCell id="aBB88XqnUMOAzRAOUT1o-27" value="Name" style="text;html=1;align=center;verticalAlign=middle;resizable=0;points=[];autosize=1;strokeColor=none;fillColor=none;" vertex="1" parent="1">
          <mxGeometry x="765" y="473" width="60" height="30" as="geometry" />
        </mxCell>
        <mxCell id="aBB88XqnUMOAzRAOUT1o-28" value="Id_City" style="text;html=1;align=center;verticalAlign=middle;resizable=0;points=[];autosize=1;strokeColor=none;fillColor=none;" vertex="1" parent="1">
          <mxGeometry x="765" y="397" width="60" height="30" as="geometry" />
        </mxCell>
        <mxCell id="aBB88XqnUMOAzRAOUT1o-29" style="rounded=0;orthogonalLoop=1;jettySize=auto;html=1;exitX=0;exitY=1;exitDx=0;exitDy=0;entryX=1;entryY=0;entryDx=0;entryDy=0;endArrow=none;startFill=0;" edge="1" parent="1" source="aBB88XqnUMOAzRAOUT1o-31" target="aBB88XqnUMOAzRAOUT1o-3">
          <mxGeometry relative="1" as="geometry" />
        </mxCell>
        <mxCell id="aBB88XqnUMOAzRAOUT1o-31" value="" style="ellipse;whiteSpace=wrap;html=1;aspect=fixed;fillColor=#FFFFFF;" vertex="1" parent="1">
          <mxGeometry x="673" y="367" width="14" height="14" as="geometry" />
        </mxCell>
        <mxCell id="aBB88XqnUMOAzRAOUT1o-32" style="rounded=0;orthogonalLoop=1;jettySize=auto;html=1;exitX=0.5;exitY=1;exitDx=0;exitDy=0;entryX=0.5;entryY=0;entryDx=0;entryDy=0;endArrow=none;startFill=0;" edge="1" parent="1" source="aBB88XqnUMOAzRAOUT1o-33" target="aBB88XqnUMOAzRAOUT1o-3">
          <mxGeometry relative="1" as="geometry" />
        </mxCell>
        <mxCell id="aBB88XqnUMOAzRAOUT1o-33" value="" style="ellipse;whiteSpace=wrap;html=1;aspect=fixed;fillColor=#FFFFFF;" vertex="1" parent="1">
          <mxGeometry x="610" y="367" width="14" height="14" as="geometry" />
        </mxCell>
        <mxCell id="aBB88XqnUMOAzRAOUT1o-34" value="Gender" style="text;html=1;align=center;verticalAlign=middle;resizable=0;points=[];autosize=1;strokeColor=none;fillColor=none;" vertex="1" parent="1">
          <mxGeometry x="587" y="337" width="60" height="30" as="geometry" />
        </mxCell>
        <mxCell id="aBB88XqnUMOAzRAOUT1o-35" value="Birthdate" style="text;html=1;align=center;verticalAlign=middle;resizable=0;points=[];autosize=1;strokeColor=none;fillColor=none;" vertex="1" parent="1">
          <mxGeometry x="647" y="337" width="70" height="30" as="geometry" />
        </mxCell>
        <mxCell id="aBB88XqnUMOAzRAOUT1o-36" style="edgeStyle=orthogonalEdgeStyle;rounded=0;orthogonalLoop=1;jettySize=auto;html=1;exitX=0.5;exitY=0;exitDx=0;exitDy=0;endArrow=none;startFill=0;entryX=0.472;entryY=0.988;entryDx=0;entryDy=0;entryPerimeter=0;" edge="1" parent="1" source="aBB88XqnUMOAzRAOUT1o-6" target="aBB88XqnUMOAzRAOUT1o-49">
          <mxGeometry relative="1" as="geometry">
            <mxPoint x="402" y="484" as="targetPoint" />
          </mxGeometry>
        </mxCell>
        <mxCell id="aBB88XqnUMOAzRAOUT1o-37" value="" style="ellipse;whiteSpace=wrap;html=1;aspect=fixed;fillColor=#FFFFFF;" vertex="1" parent="1">
          <mxGeometry x="395" y="267.76" width="14" height="14" as="geometry" />
        </mxCell>
        <mxCell id="aBB88XqnUMOAzRAOUT1o-38" value="Year" style="text;html=1;align=center;verticalAlign=middle;resizable=0;points=[];autosize=1;strokeColor=none;fillColor=none;" vertex="1" parent="1">
          <mxGeometry x="424" y="259.76" width="50" height="30" as="geometry" />
        </mxCell>
        <mxCell id="aBB88XqnUMOAzRAOUT1o-39" style="edgeStyle=orthogonalEdgeStyle;rounded=0;orthogonalLoop=1;jettySize=auto;html=1;exitX=0.5;exitY=0;exitDx=0;exitDy=0;entryX=0.5;entryY=1;entryDx=0;entryDy=0;endArrow=none;startFill=0;" edge="1" parent="1" source="aBB88XqnUMOAzRAOUT1o-41" target="aBB88XqnUMOAzRAOUT1o-37">
          <mxGeometry relative="1" as="geometry" />
        </mxCell>
        <mxCell id="aBB88XqnUMOAzRAOUT1o-40" style="edgeStyle=orthogonalEdgeStyle;rounded=0;orthogonalLoop=1;jettySize=auto;html=1;exitX=0;exitY=0.5;exitDx=0;exitDy=0;endArrow=none;startFill=0;" edge="1" parent="1" source="aBB88XqnUMOAzRAOUT1o-41" target="aBB88XqnUMOAzRAOUT1o-44">
          <mxGeometry relative="1" as="geometry" />
        </mxCell>
        <mxCell id="aBB88XqnUMOAzRAOUT1o-41" value="" style="ellipse;whiteSpace=wrap;html=1;aspect=fixed;fillColor=#FFFFFF;" vertex="1" parent="1">
          <mxGeometry x="395" y="307.76" width="14" height="14" as="geometry" />
        </mxCell>
        <mxCell id="aBB88XqnUMOAzRAOUT1o-42" value="Id_Start" style="text;html=1;align=center;verticalAlign=middle;resizable=0;points=[];autosize=1;strokeColor=none;fillColor=none;" vertex="1" parent="1">
          <mxGeometry x="414" y="299.76" width="70" height="30" as="geometry" />
        </mxCell>
        <mxCell id="aBB88XqnUMOAzRAOUT1o-43" style="edgeStyle=orthogonalEdgeStyle;rounded=0;orthogonalLoop=1;jettySize=auto;html=1;exitX=0.5;exitY=1;exitDx=0;exitDy=0;entryX=0.48;entryY=0.004;entryDx=0;entryDy=0;entryPerimeter=0;endArrow=none;startFill=0;" edge="1" parent="1" source="aBB88XqnUMOAzRAOUT1o-41">
          <mxGeometry relative="1" as="geometry">
            <mxPoint x="402.20000000000005" y="360" as="targetPoint" />
          </mxGeometry>
        </mxCell>
        <mxCell id="aBB88XqnUMOAzRAOUT1o-44" value="" style="ellipse;whiteSpace=wrap;html=1;aspect=fixed;fillColor=#FFFFFF;" vertex="1" parent="1">
          <mxGeometry x="345" y="267.76" width="14" height="14" as="geometry" />
        </mxCell>
        <mxCell id="aBB88XqnUMOAzRAOUT1o-45" value="&lt;div&gt;&lt;span style=&quot;background-color: transparent; color: light-dark(rgb(0, 0, 0), rgb(255, 255, 255));&quot;&gt;Days_Of_Hospitalization&lt;/span&gt;&lt;/div&gt;" style="text;html=1;align=center;verticalAlign=middle;resizable=0;points=[];autosize=1;strokeColor=none;fillColor=none;" vertex="1" parent="1">
          <mxGeometry x="195" y="259.76" width="150" height="30" as="geometry" />
        </mxCell>
        <mxCell id="aBB88XqnUMOAzRAOUT1o-46" value="Plan" style="swimlane;fontStyle=0;childLayout=stackLayout;horizontal=1;startSize=30;horizontalStack=0;resizeParent=1;resizeParentMax=0;resizeLast=0;collapsible=1;marginBottom=0;whiteSpace=wrap;html=1;" vertex="1" parent="1">
          <mxGeometry x="310" y="360" width="193" height="120" as="geometry" />
        </mxCell>
        <mxCell id="aBB88XqnUMOAzRAOUT1o-47" value="Average_Age" style="text;strokeColor=none;fillColor=none;align=left;verticalAlign=middle;spacingLeft=4;spacingRight=4;overflow=hidden;points=[[0,0.5],[1,0.5]];portConstraint=eastwest;rotatable=0;whiteSpace=wrap;html=1;" vertex="1" parent="aBB88XqnUMOAzRAOUT1o-46">
          <mxGeometry y="30" width="193" height="30" as="geometry" />
        </mxCell>
        <mxCell id="aBB88XqnUMOAzRAOUT1o-48" value="Average_&lt;span style=&quot;text-align: center; text-wrap-mode: nowrap;&quot;&gt;Days_Of_Hospitalization&lt;/span&gt;" style="text;strokeColor=none;fillColor=none;align=left;verticalAlign=middle;spacingLeft=4;spacingRight=4;overflow=hidden;points=[[0,0.5],[1,0.5]];portConstraint=eastwest;rotatable=0;whiteSpace=wrap;html=1;" vertex="1" parent="aBB88XqnUMOAzRAOUT1o-46">
          <mxGeometry y="60" width="193" height="30" as="geometry" />
        </mxCell>
        <mxCell id="aBB88XqnUMOAzRAOUT1o-49" value="Amount_Patient" style="text;strokeColor=none;fillColor=none;align=left;verticalAlign=middle;spacingLeft=4;spacingRight=4;overflow=hidden;points=[[0,0.5],[1,0.5]];portConstraint=eastwest;rotatable=0;whiteSpace=wrap;html=1;" vertex="1" parent="aBB88XqnUMOAzRAOUT1o-46">
          <mxGeometry y="90" width="193" height="30" as="geometry" />
        </mxCell>
        <mxCell id="aBB88XqnUMOAzRAOUT1o-52" value="" style="ellipse;whiteSpace=wrap;html=1;aspect=fixed;fillColor=#FFFFFF;" vertex="1" parent="1">
          <mxGeometry x="868" y="382.51" width="14" height="14" as="geometry" />
        </mxCell>
        <mxCell id="aBB88XqnUMOAzRAOUT1o-53" value="County_Name" style="text;html=1;align=center;verticalAlign=middle;resizable=0;points=[];autosize=1;strokeColor=none;fillColor=none;" vertex="1" parent="1">
          <mxGeometry x="825" y="354.51" width="100" height="30" as="geometry" />
        </mxCell>
        <mxCell id="aBB88XqnUMOAzRAOUT1o-54" value="" style="ellipse;whiteSpace=wrap;html=1;aspect=fixed;fillColor=#FFFFFF;" vertex="1" parent="1">
          <mxGeometry x="868" y="492.51" width="14" height="14" as="geometry" />
        </mxCell>
        <mxCell id="aBB88XqnUMOAzRAOUT1o-55" value="State&lt;span style=&quot;background-color: transparent; color: light-dark(rgb(0, 0, 0), rgb(255, 255, 255));&quot;&gt;_Name&lt;/span&gt;" style="text;html=1;align=center;verticalAlign=middle;resizable=0;points=[];autosize=1;strokeColor=none;fillColor=none;" vertex="1" parent="1">
          <mxGeometry x="840" y="506.51" width="90" height="30" as="geometry" />
        </mxCell>
      </root>
    </mxGraphModel>
  </diagram>
</mxfile>
